<svg width="161" height="37" viewBox="0 0 161 37" fill="none" xmlns="http://www.w3.org/2000/svg">
<g clip-path="url(#clip0_23_34)">
<mask id="mask0_23_34" style="mask-type:luminance" maskUnits="userSpaceOnUse" x="0" y="0" width="161" height="37">
<path d="M161 -6.10352e-05H0V37H161V-6.10352e-05Z" fill="white"/>
</mask>
<g mask="url(#mask0_23_34)">
<path fill-rule="evenodd" clip-rule="evenodd" d="M8.53889 5.4871C8.53889 2.53534 10.9076 0.142174 13.8292 0.142174L13.8297 8.76926H22.3687V0.142174H22.3691C25.2907 0.142174 27.659 2.53534 27.659 5.4871C27.659 7.25047 27.659 8.76926 27.659 8.76926H30.9081C33.8298 8.76926 36.1981 11.1624 36.1981 14.1142L27.659 14.1146V22.7417H36.1981V22.7421C36.1981 25.6939 33.8298 28.0866 30.9081 28.0866C29.1628 28.0866 27.659 28.0866 27.659 28.0866V36.7137H27.6586C24.737 36.7137 22.3687 34.321 22.3687 31.3692C22.3687 29.6058 22.3687 28.0866 22.3687 28.0866H13.8297V31.3692C13.8297 34.321 11.4609 36.7137 8.53932 36.7137L8.53889 28.0866H-0.00012207V28.0862C-0.00012207 25.1344 2.3686 22.7417 5.29023 22.7417C7.0356 22.7417 8.53889 22.7417 8.53889 22.7417V14.1146H5.29023C2.3686 14.1146 -0.00012207 11.7215 -0.00012207 8.7697V8.76926H8.53889V5.4871ZM22.3687 22.7417V14.1146H13.8297V22.7417H22.3687Z" fill="#E6007A"/>
<path fill-rule="evenodd" clip-rule="evenodd" d="M44.7069 7.66457C41.9068 7.66457 40.293 6.27037 40.293 3.87377C40.293 1.5174 41.9068 0.142517 44.7069 0.142517C47.5056 0.142517 49.1194 1.5174 49.1194 3.87377C49.1194 6.27037 47.5056 7.66457 44.7069 7.66457ZM36.6393 35.6924L38.1554 30.1342C38.447 30.2516 38.7188 30.3304 39.0501 30.3304C40.4685 30.3304 41.2075 29.3876 41.2075 27.3651V9.05957C43.5985 9.70719 46.0093 9.70719 48.42 9.05957V27.168C48.42 31.9604 46.8445 36.7141 41.4212 36.7141C39.6333 36.7141 38.2517 36.3996 36.6393 35.6924ZM77.075 23.0047C77.5803 23.0047 78.2216 22.9066 78.7086 22.6902V28.8768C77.736 29.3876 75.8504 29.8984 74.1206 29.8984C70.212 29.8984 69.357 27.1294 69.902 21.0996H69.6684C68.3463 26.6973 64.03 29.9177 58.529 29.9177C54.0386 29.9177 50.9469 28.0127 50.9469 24.2614C50.9469 18.428 57.9457 18.1922 68.7157 18.3692V18.251C68.7157 15.9726 67.2378 14.6572 64.1475 14.6572C61.7368 14.6572 58.6847 15.4819 58.5091 18.3499L53.1638 17.2494C52.5409 12.5946 56.2937 8.37172 64.517 8.37172C70.5815 8.37172 75.9085 10.5913 75.9085 18.0547V21.2171C75.9085 22.2975 76.1803 23.0047 77.075 23.0047ZM62.0085 23.7119C65.2942 23.7119 68.4241 22.592 68.6959 19.4891C62.4941 19.3708 58.335 20.1568 58.335 21.8454C58.335 23.024 59.5595 23.7119 62.0085 23.7119ZM81.0019 29.2307V9.05957H88.4862L87.3976 18.8012H87.6312C88.5839 13.2622 92.1031 8.37172 97.021 8.37172C101.629 8.37172 104.389 12.0056 103.553 18.8012H103.806C105.186 11.6323 108.88 8.37172 113.254 8.37172C119.262 8.37172 120.952 11.6323 120.952 19.2726V29.2307H113.759V19.6853C113.759 16.7393 112.495 15.403 110.026 15.403C107.072 15.403 104.603 17.7409 104.545 21.7473V29.2307H97.3522V19.6853C97.3522 16.7393 96.1263 15.403 93.7353 15.403C90.7031 15.403 88.1946 17.8584 88.1946 22.0224V29.2307H81.0019ZM127.99 7.68467C125.19 7.68467 123.577 6.2897 123.577 3.89391C123.577 1.53673 125.19 0.161839 127.99 0.161839C130.789 0.161839 132.403 1.53673 132.403 3.89391C132.403 6.2897 130.789 7.68467 127.99 7.68467ZM124.393 29.2307V9.05957C126.804 9.70719 129.195 9.70719 131.606 9.05957V29.2307H124.393ZM161 29.2307H153.496L153.923 23.7505H153.729C152.407 28.1109 149.317 29.8984 144.865 29.8984C138.585 29.8984 134.211 25.4986 134.211 19.1158C134.211 12.4964 138.585 8.37172 144.903 8.37172C149.686 8.37172 152.952 11.2003 154.001 16.4835H154.235C154.059 14.4014 153.807 12.0451 153.807 9.66857V0.829561H161V29.2307ZM153.282 19.1351C153.282 16.6017 151.047 14.7948 147.178 14.7948C143.115 14.7948 140.898 16.5816 140.898 19.0957C140.898 21.6491 143.095 23.4367 147.158 23.4367C151.358 23.4367 153.282 21.6492 153.282 19.1351Z" fill="black"/>
</g>
</g>
<defs>
<clipPath id="clip0_23_34">
<rect width="161" height="37" fill="white"/>
</clipPath>
</defs>
</svg>
